<svg width="235" height="39" viewBox="0 0 235 39" fill="none" xmlns="http://www.w3.org/2000/svg">
<path d="M29.4 21.008C29.4 24.432 28.696 27.424 27.288 29.984C25.912 32.512 23.88 34.48 21.192 35.888C18.536 37.296 15.352 38 11.64 38H0.312V4.112H11.64C15.352 4.112 18.536 4.816 21.192 6.224C23.88 7.6 25.912 9.552 27.288 12.08C28.696 14.608 29.4 17.584 29.4 21.008ZM11.208 33.056C15.272 33.056 18.392 32 20.568 29.888C22.744 27.776 23.832 24.816 23.832 21.008C23.832 17.2 22.744 14.24 20.568 12.128C18.392 10.016 15.272 8.96 11.208 8.96H5.784V33.056H11.208ZM40.3778 16.736C41.2738 15.008 42.5538 13.648 44.2178 12.656C45.8818 11.632 47.8018 11.12 49.9778 11.12V17.072H48.3458C45.9458 17.072 44.0098 17.664 42.5378 18.848C41.0978 20 40.3778 21.92 40.3778 24.608V38H34.9058V11.552H40.3778V16.736ZM58.3976 31.952V38H52.2056V31.952H58.3976ZM98.3543 4.64V38H92.8343V12.992L83.1863 38H78.3863L68.6903 12.992V38H63.2183V4.64H69.8423L80.8823 31.28L91.7303 4.64H98.3543ZM104.169 3.872C104.169 2.944 104.489 2.176 105.129 1.568C105.769 0.959997 106.617 0.655997 107.673 0.655997C108.729 0.655997 109.577 0.959997 110.217 1.568C110.889 2.176 111.225 2.944 111.225 3.872C111.225 4.8 110.889 5.552 110.217 6.128C109.577 6.704 108.729 6.992 107.673 6.992C106.617 6.992 105.769 6.704 105.129 6.128C104.489 5.552 104.169 4.8 104.169 3.872ZM110.409 11.552V38H104.937V11.552H110.409ZM122.503 16.736C123.399 15.008 124.679 13.648 126.343 12.656C128.007 11.632 129.927 11.12 132.103 11.12V17.072H130.471C128.071 17.072 126.135 17.664 124.663 18.848C123.223 20 122.503 21.92 122.503 24.608V38H117.031V11.552H122.503V16.736ZM146.811 11.216C149.211 11.216 151.259 11.808 152.955 12.992C154.651 14.176 155.851 15.744 156.555 17.696V11.552H162.027V38H156.555V31.856C155.851 33.808 154.651 35.376 152.955 36.56C151.259 37.744 149.211 38.336 146.811 38.336C144.507 38.336 142.443 37.792 140.619 36.704C138.827 35.616 137.419 34.048 136.395 32C135.371 29.952 134.859 27.536 134.859 24.752C134.859 22 135.371 19.6 136.395 17.552C137.419 15.504 138.827 13.936 140.619 12.848C142.443 11.76 144.507 11.216 146.811 11.216ZM148.491 16.016C146.059 16.016 144.107 16.8 142.635 18.368C141.195 19.904 140.475 22.032 140.475 24.752C140.475 27.472 141.195 29.616 142.635 31.184C144.107 32.72 146.059 33.488 148.491 33.488C150.027 33.488 151.403 33.136 152.619 32.432C153.835 31.696 154.795 30.672 155.499 29.36C156.203 28.048 156.555 26.512 156.555 24.752C156.555 23.024 156.203 21.504 155.499 20.192C154.795 18.848 153.835 17.824 152.619 17.12C151.403 16.384 150.027 16.016 148.491 16.016ZM180.353 11.216C183.777 11.216 186.609 12.128 188.849 13.952C191.089 15.744 192.481 18.192 193.025 21.296H187.217C186.897 19.632 186.113 18.336 184.865 17.408C183.649 16.448 182.113 15.968 180.257 15.968C178.145 15.968 176.385 16.72 174.977 18.224C173.569 19.696 172.865 21.872 172.865 24.752C172.865 27.632 173.569 29.824 174.977 31.328C176.385 32.832 178.145 33.584 180.257 33.584C182.113 33.584 183.649 33.104 184.865 32.144C186.113 31.184 186.897 29.872 187.217 28.208H193.025C192.481 31.312 191.089 33.776 188.849 35.6C186.609 37.424 183.777 38.336 180.353 38.336C177.793 38.336 175.521 37.792 173.537 36.704C171.585 35.616 170.049 34.048 168.929 32C167.809 29.952 167.249 27.536 167.249 24.752C167.249 22 167.809 19.6 168.929 17.552C170.049 15.504 171.585 13.936 173.537 12.848C175.521 11.76 177.793 11.216 180.353 11.216ZM203.784 2.48V38H198.312V2.48H203.784ZM234.982 23.504C234.982 24.4 234.918 25.184 234.79 25.856H214.438C214.534 28.576 215.286 30.592 216.694 31.904C218.102 33.216 219.846 33.872 221.926 33.872C223.75 33.872 225.286 33.408 226.534 32.48C227.814 31.552 228.598 30.32 228.886 28.784H234.742C234.39 30.64 233.654 32.288 232.534 33.728C231.414 35.168 229.958 36.304 228.166 37.136C226.374 37.936 224.374 38.336 222.166 38.336C219.606 38.336 217.334 37.792 215.35 36.704C213.398 35.616 211.862 34.048 210.742 32C209.622 29.952 209.062 27.536 209.062 24.752C209.062 22 209.622 19.6 210.742 17.552C211.862 15.504 213.398 13.936 215.35 12.848C217.334 11.76 219.606 11.216 222.166 11.216C224.758 11.216 227.014 11.76 228.934 12.848C230.886 13.904 232.374 15.376 233.398 17.264C234.454 19.12 234.982 21.2 234.982 23.504ZM229.462 23.36C229.526 21.632 229.222 20.192 228.55 19.04C227.91 17.856 227.014 16.992 225.862 16.448C224.742 15.872 223.51 15.584 222.166 15.584C220.022 15.584 218.23 16.24 216.79 17.552C215.35 18.864 214.566 20.8 214.438 23.36H229.462Z" fill="black"/>
</svg>
